<?xml version="1.0" encoding="UTF-8" standalone="no"?>
<!DOCTYPE svg PUBLIC "-//W3C//DTD SVG 1.1//EN" "http://www.w3.org/Graphics/SVG/1.1/DTD/svg11.dtd">
<svg xmlns="http://www.w3.org/2000/svg" version="1.1" viewBox="0.00 0.00 176.00 150.00">
<path fill="#fff" d="
  M 46.47 56.18
  C 49.78 44.56 57.34 31.64 69.58 27.87
  C 70.60 27.56 71.35 26.90 72.32 26.63
  C 89.21 21.92 107.43 24.50 120.62 36.64
  C 124.11 39.85 129.07 45.53 134.19 49.44
  C 146.70 59.01 162.76 54.81 171.25 42.24
  Q 172.26 40.75 171.82 42.50
  C 167.51 59.80 156.03 72.02 138.04 74.40
  C 122.41 76.48 108.30 72.97 96.64 61.85
  C 91.75 57.18 86.09 50.85 80.97 47.91
  C 68.89 40.97 55.17 45.67 47.20 56.53
  Q 45.85 58.37 46.47 56.18
  Z"
/>
<path fill="#fff" d="
  M 45.95 103.90
  C 45.53 103.45 45.04 103.34 44.59 102.90
  Q 34.16 92.89 21.06 96.04
  C 13.81 97.78 9.39 102.07 4.45 107.67
  Q 4.04 108.13 4.18 107.53
  C 7.01 95.85 14.38 83.60 26.60 78.79
  C 28.32 78.11 29.75 77.39 31.51 76.94
  C 47.90 72.66 65.38 75.38 78.09 86.90
  C 84.07 92.32 90.69 101.22 98.85 103.89
  Q 113.20 108.58 124.64 97.88
  Q 125.50 97.07 126.41 96.30
  C 127.50 95.37 128.15 93.99 129.30 92.99
  Q 129.69 92.65 129.56 93.15
  C 126.34 106.49 118.07 118.48 105.02 122.73
  C 104.34 122.95 103.84 123.29 103.34 123.43
  Q 85.68 128.31 68.49 122.05
  Q 65.54 120.97 59.70 117.04
  Q 55.18 114.00 45.95 103.90
  Z"
/>
</svg>
